<?xml version="1.0" encoding="UTF-8" standalone="no"?>
<svg
   width="16"
   height="16"
   fill="currentColor"
   class="bi bi-ethernet"
   viewBox="0 0 16 16"
   version="1.1"
   id="svg894"
   xmlns="http://www.w3.org/2000/svg"
   xmlns:svg="http://www.w3.org/2000/svg">
  <defs
     id="defs898" />
  <path
     d="m 14,13.5 v -7 C 14,6.2238576 13.776142,6 13.5,6 H 12 V 4.5 C 12,4.2238576 11.776142,4 11.5,4 h -1 V 3.5 C 10.5,3.2238576 10.276142,3 10,3 H 6 C 5.7238576,3 5.5,3.2238576 5.5,3.5 V 4 h -1 C 4.2238576,4 4,4.2238576 4,4.5 V 6 H 2.5 C 2.2238576,6 2,6.2238576 2,6.5 v 7 C 2,13.776142 2.2238576,14 2.5,14 h 11 C 13.776142,14 14,13.776142 14,13.5 Z M 3.75,7 h 0.5 C 4.3880712,7 4.5,7.1119288 4.5,7.25 v 5.5 C 4.5,12.888071 4.3880712,13 4.25,13 H 3.75 C 3.6119288,13 3.5,12.888071 3.5,12.75 V 7.25 C 3.5,7.1119288 3.6119288,7 3.75,7 Z m 2,-2 h 0.5 C 6.3880712,5 6.5,5.1119288 6.5,5.25 v 7.5 C 6.5,12.888071 6.3880712,13 6.25,13 H 5.75 C 5.6119288,13 5.5,12.888071 5.5,12.75 V 5.25 C 5.5,5.1119288 5.6119288,5 5.75,5 Z M 7.5,5.25 C 7.5,5.1119288 7.6119288,5 7.75,5 h 0.5 C 8.3880712,5 8.5,5.1119288 8.5,5.25 v 7.5 C 8.5,12.888071 8.3880712,13 8.25,13 H 7.75 C 7.6119288,13 7.5,12.888071 7.5,12.75 Z M 9.75,5 h 0.5 c 0.138071,0 0.25,0.1119288 0.25,0.25 v 7.5 C 10.5,12.888071 10.388071,13 10.25,13 H 9.75 C 9.6119288,13 9.5,12.888071 9.5,12.75 V 5.25 C 9.5,5.1119288 9.6119288,5 9.75,5 Z M 11.5,7.25 C 11.5,7.1119288 11.611929,7 11.75,7 h 0.5 c 0.138071,0 0.25,0.1119288 0.25,0.25 v 5.5 c 0,0.138071 -0.111929,0.25 -0.25,0.25 h -0.5 C 11.611929,13 11.5,12.888071 11.5,12.75 Z"
     id="path890"
     style="fill:#ffcc00" />
  <path
     d="M2 0a2 2 0 0 0-2 2v12a2 2 0 0 0 2 2h12a2 2 0 0 0 2-2V2a2 2 0 0 0-2-2H2ZM1 2a1 1 0 0 1 1-1h12a1 1 0 0 1 1 1v12a1 1 0 0 1-1 1H2a1 1 0 0 1-1-1V2Z"
     id="path892"
     style="fill:#806600" />
</svg>
